<svg width="414" height="504" viewBox="0 0 414 504" fill="none" xmlns="http://www.w3.org/2000/svg">
<path fill-rule="evenodd" clip-rule="evenodd" d="M265 219.5C265 254.435 256.839 287.463 242.319 316.783C338.583 325.528 414 406.457 414 505C414 609.382 329.382 694 225 694C129.032 694 49.7693 622.473 37.6153 529.821C32.0252 531.24 26.1143 532 20 532C-14.7939 532 -43 507.376 -43 477C-43 457.623 -31.5224 440.587 -14.1786 430.79C-106.404 404.793 -174 320.041 -174 219.5C-174 98.2735 -75.7265 0 45.5 0C166.727 0 265 98.2735 265 219.5Z" fill="#7463DE" fill-opacity="0.28"/>
</svg>
