<svg width="1080" height="1080" viewBox="0 0 1080 1080" fill="none" xmlns="http://www.w3.org/2000/svg">
<path d="M384.76 838.96C501.292 838.96 595.76 744.492 595.76 627.96C595.76 511.428 501.292 416.96 384.76 416.96C268.228 416.96 173.76 511.428 173.76 627.96C173.76 744.492 268.228 838.96 384.76 838.96Z" fill="#E2E2E2"/>
<path d="M799.75 380.61H373.58C367.521 380.61 362.61 385.521 362.61 391.58V659.36C362.61 665.418 367.521 670.33 373.58 670.33H799.75C805.808 670.33 810.72 665.418 810.72 659.36V391.58C810.72 385.521 805.808 380.61 799.75 380.61Z" fill="white"/>
<path d="M695.06 670.33H373.59C370.672 670.33 367.875 669.171 365.812 667.108C363.749 665.045 362.59 662.247 362.59 659.33V391.58C362.59 390.136 362.874 388.705 363.427 387.371C363.98 386.036 364.79 384.823 365.812 383.802C366.833 382.78 368.046 381.97 369.38 381.417C370.715 380.865 372.145 380.58 373.59 380.58H799.75C801.194 380.58 802.625 380.865 803.959 381.417C805.294 381.97 806.507 382.78 807.528 383.802C808.549 384.823 809.36 386.036 809.913 387.371C810.465 388.705 810.75 390.136 810.75 391.58V578.06" stroke="#0E0E0E" stroke-width="3" stroke-linecap="round" stroke-linejoin="round"/>
<path d="M747.01 476.94C765.185 476.94 779.92 462.206 779.92 444.03C779.92 425.854 765.185 411.12 747.01 411.12C728.834 411.12 714.1 425.854 714.1 444.03C714.1 462.206 728.834 476.94 747.01 476.94Z" fill="#8C8C8C"/>
<path d="M731.554 467.301C744.406 454.449 744.406 433.611 731.554 420.759C718.702 407.907 697.864 407.907 685.012 420.759C672.16 433.611 672.16 454.449 685.012 467.301C697.864 480.153 718.702 480.153 731.554 467.301Z" fill="#D3D3D3"/>
<path d="M466.96 476.03H408.75C405.491 476.03 402.85 478.671 402.85 481.93V512.72C402.85 515.978 405.491 518.62 408.75 518.62H466.96C470.218 518.62 472.86 515.978 472.86 512.72V481.93C472.86 478.671 470.218 476.03 466.96 476.03Z" fill="#D3D3D3"/>
<path d="M402.85 622.69H467.82" stroke="#8C8C8C" stroke-width="9" stroke-miterlimit="10" stroke-linecap="round"/>
<path d="M503.34 622.69H568.3" stroke="#8C8C8C" stroke-width="9" stroke-miterlimit="10" stroke-linecap="round"/>
<path d="M602.74 622.69H667.71" stroke="#8C8C8C" stroke-width="9" stroke-miterlimit="10" stroke-linecap="round"/>
<path d="M667.02 845.49C674.873 845.49 681.24 839.123 681.24 831.27C681.24 823.416 674.873 817.05 667.02 817.05C659.166 817.05 652.8 823.416 652.8 831.27C652.8 839.123 659.166 845.49 667.02 845.49Z" fill="#E2E2E2"/>
<path d="M649.53 907.39C659.189 907.39 667.02 899.56 667.02 889.9C667.02 880.241 659.189 872.41 649.53 872.41C639.87 872.41 632.04 880.241 632.04 889.9C632.04 899.56 639.87 907.39 649.53 907.39Z" fill="#E2E2E2"/>
<path d="M708.1 896.18C714.661 896.18 719.98 890.861 719.98 884.3C719.98 877.739 714.661 872.42 708.1 872.42C701.539 872.42 696.22 877.739 696.22 884.3C696.22 890.861 701.539 896.18 708.1 896.18Z" fill="#E2E2E2"/>
<path d="M883.585 306.446C888.616 300.416 887.806 291.449 881.776 286.417C875.746 281.386 866.779 282.196 861.748 288.226C856.716 294.256 857.526 303.223 863.556 308.255C869.587 313.286 878.554 312.476 883.585 306.446Z" fill="#E2E2E2"/>
<path d="M402.47 281.755C408.658 274.338 407.662 263.309 400.245 257.121C392.828 250.933 381.799 251.929 375.611 259.345C369.422 266.762 370.418 277.792 377.835 283.98C385.252 290.168 396.281 289.172 402.47 281.755Z" fill="#E2E2E2"/>
<path d="M431.377 229.59C435.58 224.552 434.904 217.061 429.866 212.857C424.828 208.654 417.337 209.33 413.133 214.368C408.93 219.406 409.606 226.898 414.644 231.101C419.682 235.304 427.174 234.628 431.377 229.59Z" fill="#E2E2E2"/>
<path d="M309.37 260.172C310.541 260.172 311.497 260.572 312.237 261.374C313.038 262.114 313.439 263.069 313.439 264.241C313.439 265.412 313.038 266.399 312.237 267.2C311.497 267.94 310.541 268.31 309.37 268.31H294.943V282.644C294.943 283.816 294.542 284.802 293.741 285.604C293.001 286.405 292.045 286.806 290.874 286.806C289.702 286.806 288.716 286.405 287.915 285.604C287.175 284.802 286.805 283.816 286.805 282.644V268.31H272.378C271.206 268.31 270.22 267.94 269.419 267.2C268.679 266.399 268.309 265.412 268.309 264.241C268.309 263.069 268.679 262.114 269.419 261.374C270.22 260.572 271.206 260.172 272.378 260.172H286.805V245.745C286.805 244.573 287.175 243.618 287.915 242.878C288.716 242.076 289.702 241.676 290.874 241.676C292.045 241.676 293.001 242.076 293.741 242.878C294.542 243.618 294.943 244.573 294.943 245.745V260.172H309.37Z" fill="#727272"/>
<path d="M453.585 321.636C455.328 321.636 456.751 322.232 457.852 323.425C459.045 324.526 459.641 325.949 459.641 327.692C459.641 329.436 459.045 330.904 457.852 332.097C456.751 333.198 455.328 333.749 453.585 333.749H432.111V355.085C432.111 356.828 431.515 358.296 430.322 359.489C429.221 360.682 427.798 361.279 426.055 361.279C424.311 361.279 422.843 360.682 421.65 359.489C420.549 358.296 419.998 356.828 419.998 355.085V333.749H398.525C396.781 333.749 395.313 333.198 394.12 332.097C393.019 330.904 392.468 329.436 392.468 327.692C392.468 325.949 393.019 324.526 394.12 323.425C395.313 322.232 396.781 321.636 398.525 321.636H419.998V300.162C419.998 298.419 420.549 296.996 421.65 295.895C422.843 294.702 424.311 294.106 426.055 294.106C427.798 294.106 429.221 294.702 430.322 295.895C431.515 296.996 432.111 298.419 432.111 300.162V321.636H453.585Z" fill="#727272"/>
<path d="M747.01 476.94C765.185 476.94 779.92 462.206 779.92 444.03C779.92 425.854 765.185 411.12 747.01 411.12C728.834 411.12 714.1 425.854 714.1 444.03C714.1 462.206 728.834 476.94 747.01 476.94Z" fill="#8C8C8C"/>
<path d="M731.554 467.301C744.406 454.449 744.406 433.611 731.554 420.759C718.702 407.907 697.864 407.907 685.012 420.759C672.16 433.611 672.16 454.449 685.012 467.301C697.864 480.153 718.702 480.153 731.554 467.301Z" fill="#D3D3D3"/>
<path d="M466.96 476.03H408.75C405.491 476.03 402.85 478.671 402.85 481.93V512.72C402.85 515.978 405.491 518.62 408.75 518.62H466.96C470.218 518.62 472.86 515.978 472.86 512.72V481.93C472.86 478.671 470.218 476.03 466.96 476.03Z" fill="#D3D3D3"/>
<path d="M667.02 845.49C674.873 845.49 681.24 839.123 681.24 831.27C681.24 823.416 674.873 817.05 667.02 817.05C659.166 817.05 652.8 823.416 652.8 831.27C652.8 839.123 659.166 845.49 667.02 845.49Z" fill="#E2E2E2"/>
<path d="M649.53 907.39C659.189 907.39 667.02 899.56 667.02 889.9C667.02 880.241 659.189 872.41 649.53 872.41C639.87 872.41 632.04 880.241 632.04 889.9C632.04 899.56 639.87 907.39 649.53 907.39Z" fill="#E2E2E2"/>
<path d="M708.1 896.18C714.661 896.18 719.98 890.861 719.98 884.3C719.98 877.739 714.661 872.42 708.1 872.42C701.539 872.42 696.22 877.739 696.22 884.3C696.22 890.861 701.539 896.18 708.1 896.18Z" fill="#E2E2E2"/>
<path d="M883.585 306.446C888.616 300.416 887.806 291.449 881.776 286.417C875.746 281.386 866.779 282.196 861.748 288.226C856.716 294.256 857.526 303.223 863.556 308.255C869.587 313.286 878.554 312.476 883.585 306.446Z" fill="#E2E2E2"/>
<path d="M402.47 281.755C408.658 274.338 407.662 263.309 400.245 257.121C392.828 250.933 381.799 251.929 375.611 259.345C369.422 266.762 370.418 277.792 377.835 283.98C385.252 290.168 396.281 289.172 402.47 281.755Z" fill="#E2E2E2"/>
<path d="M431.377 229.59C435.58 224.552 434.904 217.061 429.866 212.857C424.828 208.654 417.337 209.33 413.133 214.368C408.93 219.406 409.606 226.898 414.644 231.101C419.682 235.304 427.174 234.628 431.377 229.59Z" fill="#E2E2E2"/>
<path d="M309.37 260.172C310.541 260.172 311.497 260.572 312.237 261.374C313.038 262.114 313.439 263.069 313.439 264.241C313.439 265.412 313.038 266.399 312.237 267.2C311.497 267.94 310.541 268.31 309.37 268.31H294.943V282.644C294.943 283.816 294.542 284.802 293.741 285.604C293.001 286.405 292.045 286.806 290.874 286.806C289.702 286.806 288.716 286.405 287.915 285.604C287.175 284.802 286.805 283.816 286.805 282.644V268.31H272.378C271.206 268.31 270.22 267.94 269.419 267.2C268.679 266.399 268.309 265.412 268.309 264.241C268.309 263.069 268.679 262.114 269.419 261.374C270.22 260.572 271.206 260.172 272.378 260.172H286.805V245.745C286.805 244.573 287.175 243.618 287.915 242.878C288.716 242.076 289.702 241.676 290.874 241.676C292.045 241.676 293.001 242.076 293.741 242.878C294.542 243.618 294.943 244.573 294.943 245.745V260.172H309.37Z" fill="#727272"/>
<path d="M453.585 321.636C455.328 321.636 456.751 322.232 457.852 323.425C459.045 324.526 459.641 325.949 459.641 327.692C459.641 329.436 459.045 330.904 457.852 332.097C456.751 333.198 455.328 333.749 453.585 333.749H432.111V355.085C432.111 356.828 431.515 358.296 430.322 359.489C429.221 360.682 427.798 361.279 426.055 361.279C424.311 361.279 422.843 360.682 421.65 359.489C420.549 358.296 419.998 356.828 419.998 355.085V333.749H398.525C396.781 333.749 395.313 333.198 394.12 332.097C393.019 330.904 392.468 329.436 392.468 327.692C392.468 325.949 393.019 324.526 394.12 323.425C395.313 322.232 396.781 321.636 398.525 321.636H419.998V300.162C419.998 298.419 420.549 296.996 421.65 295.895C422.843 294.702 424.311 294.106 426.055 294.106C427.798 294.106 429.221 294.702 430.322 295.895C431.515 296.996 432.111 298.419 432.111 300.162V321.636H453.585Z" fill="#727272"/>
<path d="M885.767 695.983C899.903 651.31 875.149 603.636 830.477 589.5C785.804 575.363 738.13 600.117 723.994 644.79C709.857 689.462 734.611 737.136 779.284 751.273C823.956 765.409 871.63 740.655 885.767 695.983Z" fill="#E2E2E2"/>
<path d="M860.839 685.409C874.975 640.737 850.221 593.063 805.549 578.926C760.876 564.789 713.202 589.544 699.065 634.216C684.929 678.888 709.683 726.563 754.355 740.699C799.028 754.836 846.702 730.082 860.839 685.409Z" stroke="#0E0E0E" stroke-width="3" stroke-miterlimit="10"/>
<path d="M746.13 656.98L774 683.38L818.21 638.12" stroke="#0E0E0E" stroke-width="8" stroke-linecap="round" stroke-linejoin="round"/>
</svg>